PathFileType	4	(X/Y/Z)	Patient4_TMGait_0pt2_01_left_10.trc.trc
DataRate	CameraRate	NumFrames	NumMarkers	Units	OrigDataRate	OrigDataStartFrame	OrigNumFrames
41.666666666667	41.666666666667	4	33	mm	41.666666666667	71	       141
Frame#	Time	Sacral			L.Shoulder			Chest			R.Shoulder			Neck			R.ASIS			L.ASIS			R.Thigh.Superior			R.Thigh.Lateral			R.Thigh.Inferior			R.Patella			L.Thigh.Superior			L.Thigh.Lateral			L.Thigh.Inferior			L.Patella			L.Shank.Superior			L.Shank.Lateral			L.Shank.Inferior			R.Shank.Superior			R.Shank.Lateral			R.Shank.Inferior			R.Heel			R.Midfoot.Superior			R.Midfoot.Lateral			R.Toe			L.Heel			L.Midfoot.Lateral			L.Midfoot.Superior			L.Toe			L.Elbow			L.Wrist			R.Elbow			R.Wrist			
		X1	Y1	Z1	X2	Y2	Z2	X3	Y3	Z3	X4	Y4	Z4	X5	Y5	Z5	X6	Y6	Z6	X7	Y7	Z7	X8	Y8	Z8	X9	Y9	Z9	X10	Y10	Z10	X11	Y11	Z11	X12	Y12	Z12	X13	Y13	Z13	X14	Y14	Z14	X15	Y15	Z15	X16	Y16	Z16	X17	Y17	Z17	X18	Y18	Z18	X19	Y19	Z19	X20	Y20	Z20	X21	Y21	Z21	X22	Y22	Z22	X23	Y23	Z23	X24	Y24	Z24	X25	Y25	Z25	X26	Y26	Z26	X27	Y27	Z27	X28	Y28	Z28	X29	Y29	Z29	X30	Y30	Z30	X31	Y31	Z31	X32	Y32	Z32	X33	Y33	Z33	

71	23.900000000000	766.602976671948	1005.742924516366	352.222062080557	985.633671734083	1439.282208261836	225.055803004593	1033.570921370129	1372.787504343112	409.253065766233	900.800976120808	1442.910897218050	551.133558558773	917.166263655463	1498.919997244721	372.899595731929	960.711389831410	952.254326744412	527.751073001918	1015.393953915255	963.598508924402	257.356189193543	1031.266047181403	764.320072772728	516.329110094619	962.939258534497	649.610126918071	579.697415496046	1055.491558148813	601.164027802301	513.373574377752	1077.351976371120	517.077265124699	534.057181974200	1032.942695905940	739.691686299659	300.175385755691	941.967164130892	625.439333673587	229.439492972186	1002.357217640151	546.870099693507	310.125683984726	992.032201739836	479.807272785175	322.438469222036	962.687583171050	409.334713046750	315.051199228714	873.293806331014	296.430395608418	261.795880574253	906.174858181905	188.492752174512	347.058898987335	1052.129251997887	429.604304581493	546.445910827057	983.197156030204	326.489386131197	613.434585214780	1045.589411607657	230.466966639134	570.863137200906	933.951799075883	49.893581955935	549.746298825253	1100.507665850469	112.995327579085	590.320578395183	1017.986891015080	43.247091857540	624.340294050449	1223.658583967214	71.635036414623	619.198755996413	766.865562252098	38.642777390159	386.737375807197	845.782226496684	35.282912086525	310.745421101587	928.111885757533	95.579043178787	342.478090121758	1057.568196852911	43.008786490926	322.800617105563	1103.209356671416	1115.841828956211	96.409484150804	1349.676828624772	1092.451942442734	167.500394555917	737.789133376184	1130.527331591463	618.993483712061	715.196638990837	869.089852769697	605.833695820632	
72	23.924000000000	766.595267405229	1005.160304628595	352.913799902448	987.031565146612	1438.200596195883	227.070037001387	1033.415244811853	1371.977999028108	411.754331432288	899.705537562681	1442.679091964531	552.459764556689	917.664760793535	1498.291008528486	374.319605672004	959.261137758604	951.322974015937	529.923737890259	1015.961090115531	963.063910890878	259.766398087653	1028.937151054421	762.906233759919	519.571415396904	959.278941099000	648.111640144126	581.684606150519	1052.494253246174	600.035056720288	516.048644270710	1074.020655732196	517.778115879932	535.557660073118	1031.277394886103	738.890433507969	302.013014199884	939.206506185075	625.737333152289	230.059469243223	998.163114418059	546.314963039260	310.633275862699	987.035859594472	479.530429139375	322.641573869548	957.876073800258	409.345531507688	315.198983394807	868.344144633279	296.574947235252	262.048066769222	901.365104992923	188.484152796698	347.134984914421	1052.572908354946	429.921089234830	547.922045644853	987.892937614075	323.886498715989	615.341066665927	1054.036673523662	230.106281143480	572.461439556056	948.529286156610	46.754762007735	551.784296297413	1114.120186471070	112.469163964235	591.300235799256	1033.383426431006	40.831865321475	625.402131920580	1238.436024630657	73.027628304150	618.315977402684	762.060338227453	38.619967656892	386.756195252582	840.935333474732	35.278103541483	310.796219127649	923.281888433824	95.551669392608	342.512860585962	1052.728126257136	42.943161971252	322.792118902310	1107.550729829439	1116.149146965815	99.135785644153	1354.210777483358	1103.952895122020	170.677997722399	734.896521034781	1131.049431804699	618.439771783610	711.194728097338	869.590061764850	603.854310567050	
73	23.948000000000	766.893111873064	1004.226314438953	354.035501514534	988.139052451519	1436.923490299625	229.496439033363	1033.280118338901	1370.974732305199	414.582967131853	898.768725142299	1442.104645601288	554.294302596390	918.065038766904	1497.398264605065	376.223944409103	958.341917100166	949.932633167397	532.222037722633	1016.748080405726	962.475179125011	262.307809239220	1027.625174224074	761.367503714506	522.399293278616	956.981421740049	646.252769611947	583.193236479744	1050.902239352833	598.814833379751	518.094633239525	1071.792655287161	517.815762556876	536.506660421160	1030.048929026301	738.005450644508	303.768464013739	936.785844058303	625.963517247204	230.782660314694	994.368671450160	545.692164234481	311.189114033109	982.503114510383	479.162489737796	322.908399733651	953.397272786429	409.248839173335	315.424567138242	863.614198855554	296.708015535329	262.339737090992	896.659457461152	188.413892341146	347.227745124828	1053.243696820816	429.600234036186	548.832452290486	991.556152288585	321.624695815952	616.303688086076	1060.267443664238	229.579869330839	573.099598617503	958.982799959760	45.019310332299	552.359652788869	1123.959763294733	111.804774152688	591.333958287815	1044.203816959807	39.328356783429	625.348182584252	1248.682048024780	73.136806484729	617.039226707185	757.244683291788	38.582448355458	386.771692443520	836.085890493314	35.261383252712	310.839528501623	918.449520598963	95.518797814873	342.542728980788	1047.887709761039	42.874833104543	322.779593215368	1111.724802364447	1116.354002075787	102.172715013559	1358.108657581704	1115.031060310654	174.114319106047	732.566986285003	1131.080170574166	618.891769855872	708.051726703195	869.613900057828	603.281726613852	
74	23.972000000000	767.524507922113	1003.049555657062	355.575118582972	989.007877308474	1435.545326110825	232.344142543406	1033.200096750287	1369.863972933038	417.755283504228	897.997410530561	1441.261616202423	556.643990911538	918.380056079823	1496.316823288670	378.620663338879	957.990855676655	948.185412761360	534.644331807115	1017.795995051277	961.888244459946	264.980466305788	1027.349200690777	759.759715784849	524.775438447596	956.031920413074	644.141408594580	584.256378514993	1050.636573814974	597.541218959903	519.526208626256	1070.631869918412	517.235206447798	536.933332832616	1029.233791362189	737.038222207718	305.447814399652	934.650296750763	626.136875215041	231.629161071758	990.914209526202	545.011708235890	311.815346932276	978.360186694418	478.718059233356	323.265267649671	949.197568705742	409.074721088997	315.732502276983	859.059589041190	296.846128253606	262.662489646010	892.030277525872	188.301886086561	347.333774092214	1054.118183353351	428.643848353254	549.231824483490	994.202521399936	319.581598621786	616.488640375796	1064.325612400329	228.701002952313	572.895425652462	965.327972454796	44.214621677327	551.757193031722	1130.098294887479	110.851865639372	590.559805692527	1050.556616655221	38.452434338159	624.458498171855	1254.635159245817	71.993405613897	615.544781815101	752.414921453984	38.530478851588	386.782873758514	831.231870342650	35.231649620122	310.873279948905	913.613939908297	95.482909335018	342.562559490046	1043.046246166409	42.808292333405	322.763787481324	1115.728489537065	1116.533479104531	105.510835225229	1361.423494459624	1125.703760973031	177.772667180942	730.788416711973	1130.706703909935	620.322977803551	705.713806142917	869.242233639518	604.097485820347	
